<svg width="40" height="40" viewBox="0 0 40 40" fill="none" xmlns="http://www.w3.org/2000/svg">
<path d="M26.2892 12.293C26.6797 11.9027 27.3128 11.9025 27.7032 12.293C28.0935 12.6834 28.0934 13.3165 27.7032 13.707L21.4122 19.998L27.7032 26.2891C28.0937 26.6795 28.0936 27.3126 27.7032 27.7031C27.3127 28.0936 26.6797 28.0937 26.2892 27.7031L19.9982 21.4121L13.7072 27.7031C13.3167 28.0936 12.6836 28.0935 12.2931 27.7031C11.9027 27.3126 11.9026 26.6796 12.2931 26.2891L18.5841 19.998L12.2931 13.707C11.9026 13.3165 11.9026 12.6835 12.2931 12.293C12.6836 11.9025 13.3166 11.9025 13.7072 12.293L19.9982 18.584L26.2892 12.293Z" fill="#282625"/>
</svg>
